# xmcd
#
# Track frame offsets: 
#        150
#        15157
#        31400
#        53910
#        64590
#        83555
#        108877
#        128275
#        147407
#
# Disc length: 2168 seconds
#
# Revision: 0
# Processed by: cddbd v1.5.1PL0 Copyright (c) Steve Scherf et al.
# Submitted via: ExactAudioCopy v0.95a5
#
DISCID=62087609
DTITLE=Jimi Hendrix - War Heroes
DYEAR=1972
DGENRE=
TTITLE0=Bleeding Heart
TTITLE1=Highway Chile
TTITLE2=Tax Free
TTITLE3=Peter Gunn Catastrophe
TTITLE4=Stepping Stone
TTITLE5=Midnight
TTITLE6=Three Little Bears
TTITLE7=Beginning
TTITLE8=Izabella
EXTD=
EXTT0=
EXTT1=
EXTT2=
EXTT3=
EXTT4=
EXTT5=
EXTT6=
EXTT7=
EXTT8=
PLAYORDER=
